<svg width="800" height="560" viewBox="0 0 800 560" fill="none" xmlns="http://www.w3.org/2000/svg">
  <rect width="800" height="560" rx="36" fill="#FFF8E8"/>
  <rect x="52" y="82" width="696" height="396" rx="28" fill="white"/>
  <rect x="88" y="118" width="240" height="36" rx="18" fill="#1A2B4A"/>
  <rect x="88" y="172" width="180" height="18" rx="9" fill="#F5A623"/>
  <rect x="88" y="204" width="220" height="18" rx="9" fill="#E9EEF7"/>
  <rect x="88" y="236" width="156" height="18" rx="9" fill="#E9EEF7"/>

  <rect x="430" y="118" width="284" height="220" rx="24" fill="#F7F8FA"/>
  <circle cx="498" cy="240" r="84" fill="#1A2B4A"/>
  <rect x="434" y="154" width="246" height="92" rx="18" fill="#F5A623"/>
  <rect x="462" y="174" width="150" height="14" rx="7" fill="#FFF6DF"/>
  <rect x="462" y="198" width="120" height="12" rx="6" fill="#FFF6DF"/>
  <circle cx="500" cy="240" r="44" fill="#F5A623"/>
  <circle cx="500" cy="240" r="24" fill="#1A2B4A"/>
  <path d="M618 286H462L430 326H650L618 286Z" fill="#D4880E"/>
  <path d="M522 248H618L590 214H522V248Z" fill="#1A2B4A"/>
  <rect x="640" y="252" width="54" height="20" rx="10" fill="#E53935"/>

  <rect x="88" y="336" width="220" height="92" rx="20" fill="#1A2B4A"/>
  <path d="M122 364H282" stroke="#F5A623" stroke-width="12" stroke-linecap="round"/>
  <path d="M122 392H240" stroke="#F5A623" stroke-width="12" stroke-linecap="round"/>
  <circle cx="138" cy="398" r="18" fill="#F5A623"/>
  <circle cx="266" cy="398" r="18" fill="#F5A623"/>

  <rect x="338" y="336" width="164" height="92" rx="20" fill="#FFFFFF" stroke="#E9EEF7" stroke-width="2"/>
  <path d="M364 390H480" stroke="#1A2B4A" stroke-width="10" stroke-linecap="round"/>
  <path d="M364 366H452" stroke="#F5A623" stroke-width="10" stroke-linecap="round"/>
  <circle cx="386" cy="400" r="14" fill="#1A2B4A"/>
  <circle cx="458" cy="400" r="14" fill="#1A2B4A"/>
</svg>
